<svg width="18" height="19" viewBox="0 0 18 19" fill="none" xmlns="http://www.w3.org/2000/svg">
<path d="M6.36613 7.682C7.30447 9.33048 8.66965 10.6957 10.3181 11.634L11.2001 10.4C11.3417 10.2003 11.5516 10.0594 11.7901 10.0041C12.0286 9.94882 12.2791 9.98294 12.4941 10.1C13.9085 10.8729 15.4703 11.3378 17.0771 11.464C17.3284 11.4839 17.5629 11.598 17.7337 11.7834C17.9045 11.9688 17.9989 12.2119 17.9981 12.464V16.926C17.9994 17.1748 17.9079 17.4151 17.7414 17.6C17.575 17.7849 17.3457 17.9011 17.0981 17.926C14.8045 18.1623 12.487 17.8843 10.3144 17.1121C8.14181 16.3398 6.16872 15.0929 4.53877 13.462C2.90883 11.8311 1.66304 9.85725 0.892097 7.68418C0.121152 5.51112 -0.15555 3.19349 0.0821305 0.900001C0.107004 0.652478 0.223245 0.423113 0.408155 0.256694C0.593064 0.0902762 0.833363 -0.00124553 1.08213 1.12621e-06H5.53913C5.79121 -0.000786627 6.03429 0.0936582 6.21971 0.264432C6.40513 0.435206 6.51922 0.669708 6.53913 0.921001C6.66498 2.5262 7.12879 4.08666 7.90013 5.5C8.0189 5.71562 8.05397 5.96748 7.99862 6.20734C7.94326 6.44721 7.80138 6.65823 7.60013 6.8L6.36213 7.684L6.36613 7.682ZM3.84413 7.025L5.74413 5.668C5.20491 4.50409 4.83548 3.26884 4.64713 2H2.01013C2.00013 2.166 2.00013 2.333 2.00013 2.5C2.00013 6.08042 3.42245 9.5142 5.95419 12.0459C8.48593 14.5777 11.9197 16 15.5001 16C15.6671 16 15.8341 16 16.0001 15.99V13.353C14.7311 13.1637 13.4959 12.7933 12.3321 12.253L10.9751 14.153C10.4288 13.9407 9.89814 13.6901 9.38713 13.403L9.32913 13.37C7.36871 12.254 5.74515 10.6304 4.62913 8.67L4.59613 8.612C4.30904 8.101 4.05841 7.57034 3.84613 7.024L3.84413 7.025Z" fill="#D5CDE9"/>
</svg>
