<svg width="20" height="16" viewBox="0 0 20 16" fill="none" xmlns="http://www.w3.org/2000/svg">
<path d="M18 16H2C1.46957 16 0.960859 15.7893 0.585786 15.4142C0.210714 15.0391 0 14.5304 0 14V2C0 1.46957 0.210714 0.960859 0.585786 0.585786C0.960859 0.210714 1.46957 0 2 0L18 0C18.5304 0 19.0391 0.210714 19.4142 0.585786C19.7893 0.960859 20 1.46957 20 2V14C20 14.5304 19.7893 15.0391 19.4142 15.4142C19.0391 15.7893 18.5304 16 18 16ZM16 4.37V13.5C16 13.6326 16.0527 13.7598 16.1464 13.8536C16.2402 13.9473 16.3674 14 16.5 14H17.5C17.6326 14 17.7598 13.9473 17.8536 13.8536C17.9473 13.7598 18 13.6326 18 13.5V2.5C18 2.36739 17.9473 2.24021 17.8536 2.14645C17.7598 2.05268 17.6326 2 17.5 2H16.12C15.8944 2.00229 15.6762 2.0801 15.5 2.221L9.86 6.72L4.23 2.22C4.05406 2.07884 3.83556 2.00131 3.61 2H2.5C2.36739 2 2.24021 2.05268 2.14645 2.14645C2.05268 2.24021 2 2.36739 2 2.5V13.5C2 13.6326 2.05268 13.7598 2.14645 13.8536C2.24021 13.9473 2.36739 14 2.5 14H3.5C3.63261 14 3.75979 13.9473 3.85355 13.8536C3.94732 13.7598 4 13.6326 4 13.5V4.59L9.35 8.84C9.48573 8.94183 9.65033 8.99786 9.82 9H10C10.1523 8.98725 10.2978 8.93179 10.42 8.84L16 4.372V4.37Z" fill="#D5CDE9"/>
</svg>
