<svg width="21" height="19" viewBox="0 0 21 19" fill="none" xmlns="http://www.w3.org/2000/svg">
<path d="M19.1062 6.17L13.6612 5.6975L11.535 0.69125C11.1525 -0.22 9.84749 -0.22 9.46499 0.69125L7.33874 5.70875L1.90499 6.17C0.91499 6.24875 0.50999 7.48625 1.26374 8.13875L5.39249 11.7163L4.15499 17.0263C3.92999 17.9938 4.97624 18.7588 5.83124 18.2413L10.5 15.4288L15.1687 18.2525C16.0237 18.77 17.07 18.005 16.845 17.0375L15.6075 11.7163L19.7362 8.13875C20.49 7.48625 20.0962 6.24875 19.1062 6.17ZM10.5 13.325L6.26999 15.8787L7.39499 11.0638L3.65999 7.82375L8.58749 7.39625L10.5 2.8625L12.4237 7.4075L17.3512 7.835L13.6162 11.075L14.7412 15.89L10.5 13.325Z" fill="#828282"/>
</svg>
