<svg width="18" height="18" viewBox="0 0 18 18" fill="none" xmlns="http://www.w3.org/2000/svg">
<path d="M16 18H13C12.4696 18 11.9609 17.7893 11.5858 17.4142C11.2107 17.0391 11 16.5304 11 16V13C11 12.4696 11.2107 11.9609 11.5858 11.5858C11.9609 11.2107 12.4696 11 13 11H16C16.5304 11 17.0391 11.2107 17.4142 11.5858C17.7893 11.9609 18 12.4696 18 13V16C18 16.5304 17.7893 17.0391 17.4142 17.4142C17.0391 17.7893 16.5304 18 16 18ZM13 13V16H16V13H13ZM5 18H2C1.46957 18 0.960859 17.7893 0.585786 17.4142C0.210714 17.0391 0 16.5304 0 16V13C0 12.4696 0.210714 11.9609 0.585786 11.5858C0.960859 11.2107 1.46957 11 2 11H5C5.53043 11 6.03914 11.2107 6.41421 11.5858C6.78929 11.9609 7 12.4696 7 13V16C7 16.5304 6.78929 17.0391 6.41421 17.4142C6.03914 17.7893 5.53043 18 5 18ZM2 13V16H5V13H2ZM16 7H13C12.4696 7 11.9609 6.78929 11.5858 6.41421C11.2107 6.03914 11 5.53043 11 5V2C11 1.46957 11.2107 0.960859 11.5858 0.585786C11.9609 0.210714 12.4696 0 13 0L16 0C16.5304 0 17.0391 0.210714 17.4142 0.585786C17.7893 0.960859 18 1.46957 18 2V5C18 5.53043 17.7893 6.03914 17.4142 6.41421C17.0391 6.78929 16.5304 7 16 7ZM13 2V5H16V2H13ZM5 7H2C1.46957 7 0.960859 6.78929 0.585786 6.41421C0.210714 6.03914 0 5.53043 0 5V2C0 1.46957 0.210714 0.960859 0.585786 0.585786C0.960859 0.210714 1.46957 0 2 0L5 0C5.53043 0 6.03914 0.210714 6.41421 0.585786C6.78929 0.960859 7 1.46957 7 2V5C7 5.53043 6.78929 6.03914 6.41421 6.41421C6.03914 6.78929 5.53043 7 5 7ZM2 2V5H5V2H2Z" fill="#333333"/>
</svg>
