<svg width="22" height="19" viewBox="0 0 22 19" fill="none" xmlns="http://www.w3.org/2000/svg">
<path d="M20.97 3.46402C20.454 4.15224 19.8304 4.75264 19.123 5.24202V5.79102C19.1265 7.40739 18.8083 9.00828 18.187 10.5005C17.5657 11.9927 16.6537 13.3463 15.5041 14.4826C14.3545 15.6189 12.9903 16.515 11.491 17.1189C9.9917 17.7228 8.38721 18.0223 6.771 18C4.88403 18.0059 3.02135 17.5747 1.329 16.74C1.28428 16.7205 1.24625 16.6883 1.21959 16.6475C1.19294 16.6066 1.17883 16.5588 1.179 16.51V16.4C1.179 16.3311 1.20639 16.2649 1.25515 16.2162C1.30391 16.1674 1.37004 16.14 1.439 16.14C3.29385 16.0782 5.08226 15.4345 6.551 14.3C5.72836 14.2834 4.92719 14.0345 4.23995 13.5821C3.55271 13.1296 3.00741 12.4921 2.667 11.743C2.64971 11.7019 2.64328 11.657 2.64834 11.6127C2.6534 11.5684 2.66977 11.5262 2.69589 11.49C2.722 11.4538 2.75697 11.425 2.79745 11.4063C2.83792 11.3875 2.88253 11.3795 2.927 11.383C3.43729 11.4343 3.95269 11.3868 4.445 11.243C3.54191 11.0557 2.72161 10.5865 2.10231 9.90304C1.483 9.21958 1.09668 8.35715 0.998996 7.44002C0.995508 7.39556 1.00352 7.35095 1.02225 7.31047C1.04099 7.27 1.06982 7.23503 1.10597 7.20891C1.14213 7.1828 1.18439 7.16643 1.2287 7.16137C1.27302 7.15631 1.31788 7.16273 1.359 7.18002C1.85635 7.39963 2.39333 7.51533 2.937 7.52002C2.14724 7.00157 1.55136 6.23623 1.24237 5.34346C0.933389 4.45069 0.928684 3.48075 1.229 2.58502C1.26023 2.49695 1.31383 2.4185 1.38454 2.35739C1.45524 2.29628 1.54062 2.25461 1.63229 2.23645C1.72397 2.2183 1.81878 2.22429 1.90744 2.25385C1.9961 2.2834 2.07555 2.3355 2.138 2.40502C4.32937 4.7375 7.34129 6.12728 10.538 6.28102C10.456 5.95408 10.4157 5.61808 10.418 5.28102C10.4319 4.41767 10.7022 3.57795 11.1946 2.86864C11.6869 2.15933 12.3792 1.61248 13.1832 1.29763C13.9872 0.982783 14.8667 0.914158 15.7098 1.10049C16.5529 1.28681 17.3215 1.71967 17.918 2.34402C18.7477 2.18544 19.5499 1.90649 20.299 1.51602C20.326 1.49918 20.3572 1.49025 20.389 1.49025C20.4208 1.49025 20.452 1.49918 20.479 1.51602C20.4958 1.54302 20.5048 1.5742 20.5048 1.60602C20.5048 1.63784 20.4958 1.66903 20.479 1.69602C20.1159 2.52938 19.5016 3.22857 18.722 3.69602C19.4055 3.61695 20.077 3.45579 20.722 3.21602C20.7485 3.19797 20.7799 3.18831 20.812 3.18831C20.8441 3.18831 20.8755 3.19797 20.902 3.21602C20.9245 3.2263 20.9444 3.24136 20.9605 3.26014C20.9766 3.27893 20.9883 3.30099 20.995 3.32478C21.0017 3.34858 21.0031 3.37355 20.9991 3.39794C20.9951 3.42233 20.9859 3.44557 20.972 3.46602L20.97 3.46402Z" fill="#03A9F5"/>
</svg>
