<svg width="18" height="19" viewBox="0 0 18 19" fill="none" xmlns="http://www.w3.org/2000/svg">
<path d="M15.6666 13.1667H17.3333V14.8333H0.666626V13.1667H2.33329V7.33333C2.33329 5.56522 3.03567 3.86953 4.28591 2.61929C5.53616 1.36905 7.23185 0.666668 8.99996 0.666668C10.7681 0.666668 12.4638 1.36905 13.714 2.61929C14.9642 3.86953 15.6666 5.56522 15.6666 7.33333V13.1667ZM14 13.1667V7.33333C14 6.00725 13.4732 4.73548 12.5355 3.7978C11.5978 2.86012 10.326 2.33333 8.99996 2.33333C7.67388 2.33333 6.40211 2.86012 5.46443 3.7978C4.52674 4.73548 3.99996 6.00725 3.99996 7.33333V13.1667H14ZM6.49996 16.5H11.5V18.1667H6.49996V16.5Z" fill="#F2994A"/>
</svg>
