<svg width="60" height="60" viewBox="0 0 60 60" fill="none" xmlns="http://www.w3.org/2000/svg">
<path d="M51.3317 8.9323C51.2943 8.88252 51.2586 8.83186 51.2128 8.78648C51.1679 8.7411 51.1176 8.70453 51.0674 8.66752C45.646 3.31342 38.2036 0 29.9998 0C13.4582 0 0 13.4583 0 30C0 38.2036 3.3134 45.6463 8.66781 51.0677C8.70526 51.1175 8.74183 51.1681 8.78676 51.2131C8.83214 51.2585 8.8828 51.295 8.93259 51.3325C14.3535 56.6874 21.7964 60 30.0002 60C46.5418 60 60 46.5417 60 30C60 21.7964 56.6875 14.3537 51.3322 8.9323H51.3317ZM30.0003 2.52617C37.1214 2.52617 43.6175 5.25008 48.5032 9.71027L9.71091 48.5028C5.25074 43.6171 2.52639 37.1208 2.52639 29.9998C2.52639 14.8509 14.8511 2.52606 29.9999 2.52606L30.0003 2.52617ZM30.0003 57.4736C22.8791 57.4736 16.3831 54.7497 11.4974 50.2895L50.2896 11.497C54.7494 16.3827 57.4737 22.8789 57.4737 30C57.4737 45.1489 45.149 57.4737 30.0002 57.4737L30.0003 57.4736Z" fill="#4F4F4F"/>
</svg>
