<svg width="20" height="20" viewBox="0 0 20 20" fill="none" xmlns="http://www.w3.org/2000/svg">
<path d="M9.05186 0.00599317C7.72657 0.105921 6.4356 0.475104 5.25786 1.09098C3.41548 2.04683 1.92675 3.56641 1.00886 5.42799C0.701717 6.01758 0.463803 6.64072 0.29986 7.28499C0.0840369 8.06621 -0.0170207 8.8747 -0.000139797 9.68501C-0.000139797 10.174 0.0188602 10.701 0.0458602 10.908C0.22713 12.3979 0.747449 13.8265 1.56686 15.084L1.84186 15.508L1.23386 17.3C0.89786 18.29 0.63386 19.1 0.63386 19.107C0.63386 19.114 1.47486 18.855 2.49086 18.53C3.50686 18.205 4.35186 17.938 4.37086 17.938C4.4915 17.9963 4.60779 18.0631 4.71886 18.138C4.89486 18.245 5.26186 18.444 5.53286 18.574C6.7472 19.1583 8.0694 19.4848 9.41615 19.5328C10.7629 19.5808 12.105 19.3493 13.3579 18.853C14.7805 18.2824 16.0504 17.3878 17.0666 16.2404C18.0829 15.0929 18.8174 13.7242 19.2119 12.243C19.4387 11.4367 19.5399 10.6002 19.5119 9.76301C19.5399 8.92584 19.4387 8.08934 19.2119 7.283C18.7521 5.55742 17.832 3.98926 16.5499 2.74623C15.2678 1.5032 13.6719 0.632056 11.9329 0.225994C11.2868 0.0810478 10.627 0.00662751 9.96486 0.00400953C9.54786 -0.00199047 9.13586 -0.00200683 9.05186 0.00599317ZM6.72086 4.53801C6.80401 4.59021 6.87277 4.6624 6.92086 4.748C7.03186 4.948 7.96386 7.18601 7.99086 7.32301C8.02486 7.49501 7.85286 7.78899 7.47486 8.21699C7.07486 8.66399 6.99386 8.80498 7.02786 8.96598C7.42177 9.69814 7.92562 10.3656 8.52186 10.945C9.27143 11.6938 10.196 12.2438 11.2119 12.545C11.5059 12.564 11.6119 12.484 12.0599 11.888C12.2599 11.617 12.4759 11.345 12.5409 11.288C12.622 11.2135 12.7237 11.1653 12.8328 11.1496C12.9418 11.1339 13.053 11.1514 13.1519 11.2C13.4649 11.318 15.3869 12.255 15.5249 12.358L15.6549 12.458L15.6319 12.858C15.6474 13.3018 15.522 13.739 15.2735 14.107C15.025 14.4749 14.6663 14.7547 14.2489 14.906C13.7721 15.1297 13.2506 15.2414 12.7241 15.2328C12.1975 15.2241 11.68 15.0952 11.2109 14.856C9.58851 14.3667 8.12505 13.4557 6.96986 12.216C6.33502 11.5896 5.76173 10.9038 5.25786 10.168C4.46946 9.24281 4.0563 8.05576 4.09986 6.84098C4.15667 6.07976 4.49457 5.36688 5.04786 4.84098C5.20714 4.69527 5.39639 4.58622 5.60231 4.52144C5.80824 4.45665 6.02585 4.43771 6.23986 4.46598C6.40312 4.46119 6.56595 4.48524 6.72086 4.537V4.53801Z" fill="#D5CDE9"/>
</svg>
